<svg xmlns="http://www.w3.org/2000/svg" version="1.1" xmlns:xlink="http://www.w3.org/1999/xlink" xmlns:svgjs="http://svgjs.com/svgjs" width="1440" height="560" preserveAspectRatio="none" viewBox="0 0 1440 560"><g mask="url(&quot;#SvgjsMask1562&quot;)" fill="none"><rect width="1440" height="560" x="0" y="0" fill="url(#SvgjsLinearGradient1563)"></rect><path d="M1440 0L1349.89 0L1440 138.33z" fill="rgba(255, 255, 255, .1)"></path><path d="M1349.89 0L1440 138.33L1440 186.72000000000003L994.73 0z" fill="rgba(255, 255, 255, .075)"></path><path d="M994.73 0L1440 186.72000000000003L1440 349.83000000000004L948.8100000000001 0z" fill="rgba(255, 255, 255, .05)"></path><path d="M948.81 0L1440 349.83000000000004L1440 449.37000000000006L485.53 0z" fill="rgba(255, 255, 255, .025)"></path><path d="M0 560L693.69 560L0 355.40999999999997z" fill="rgba(0, 0, 0, .1)"></path><path d="M0 355.40999999999997L693.69 560L810.5400000000001 560L0 274.45z" fill="rgba(0, 0, 0, .075)"></path><path d="M0 274.45L810.5400000000001 560L838.1800000000001 560L0 161.24z" fill="rgba(0, 0, 0, .05)"></path><path d="M0 161.24L838.1800000000001 560L1112.5900000000001 560L0 79.10000000000001z" fill="rgba(0, 0, 0, .025)"></path></g><defs><mask id="SvgjsMask1562"><rect width="1440" height="560" fill="#ffffff"></rect></mask><linearGradient x1="15.28%" y1="-39.29%" x2="84.72%" y2="139.29%" gradientUnits="userSpaceOnUse" id="SvgjsLinearGradient1563"><stop stop-color="rgba(14, 42, 71, 1)" offset="0"></stop><stop stop-color="rgba(255, 224, 234, 1)" offset="0.52"></stop><stop stop-color="rgba(255, 224, 234, 1)" offset="0.69"></stop></linearGradient></defs></svg>