<svg xmlns="http://www.w3.org/2000/svg" version="1.1" xmlns:xlink="http://www.w3.org/1999/xlink" xmlns:svgjs="http://svgjs.com/svgjs" width="1440" height="600" preserveAspectRatio="none" viewBox="0 0 1440 600">
<g mask="url(&quot;#SvgjsMask1112&quot;)" fill="none">
<path d="M155 440L154 802" stroke-width="8" stroke="url(#SvgjsLinearGradient1113)" stroke-linecap="round" class="Down"></path><path d="M1433 305L1432 -120" stroke-width="10" stroke="url(#SvgjsLinearGradient1114)" stroke-linecap="round" class="Up"></path><path d="M109 209L108 48" stroke-width="6" stroke="url(#SvgjsLinearGradient1113)" stroke-linecap="round" class="Down"></path><path d="M841 177L840 -155" stroke-width="10" stroke="url(#SvgjsLinearGradient1113)" stroke-linecap="round" class="Down"></path><path d="M201 487L200 309" stroke-width="10" stroke="url(#SvgjsLinearGradient1113)" stroke-linecap="round" class="Down"></path><path d="M1102 391L1101 107" stroke-width="6" stroke="url(#SvgjsLinearGradient1114)" stroke-linecap="round" class="Up"></path><path d="M291 115L290 -99" stroke-width="8" stroke="url(#SvgjsLinearGradient1114)" stroke-linecap="round" class="Up"></path><path d="M985 197L984 387" stroke-width="10" stroke="url(#SvgjsLinearGradient1114)" stroke-linecap="round" class="Up"></path><path d="M1337 10L1336 206" stroke-width="10" stroke="url(#SvgjsLinearGradient1114)" stroke-linecap="round" class="Up"></path><path d="M637 98L636 431" stroke-width="10" stroke="url(#SvgjsLinearGradient1114)" stroke-linecap="round" class="Up"></path><path d="M1193 37L1192 -342" stroke-width="8" stroke="url(#SvgjsLinearGradient1114)" stroke-linecap="round" class="Up"></path><path d="M303 570L302 993" stroke-width="10" stroke="url(#SvgjsLinearGradient1114)" stroke-linecap="round" class="Up"></path><path d="M1420 421L1419 686" stroke-width="10" stroke="url(#SvgjsLinearGradient1113)" stroke-linecap="round" class="Down"></path><path d="M747 81L746 -321" stroke-width="8" stroke="url(#SvgjsLinearGradient1114)" stroke-linecap="round" class="Up"></path><path d="M1437 403L1436 107" stroke-width="6" stroke="url(#SvgjsLinearGradient1113)" stroke-linecap="round" class="Down"></path><path d="M12 36L11 -392" stroke-width="6" stroke="url(#SvgjsLinearGradient1114)" stroke-linecap="round" class="Up"></path><path d="M455 187L454 390" stroke-width="6" stroke="url(#SvgjsLinearGradient1113)" stroke-linecap="round" class="Down"></path><path d="M76 487L75 717" stroke-width="6" stroke="url(#SvgjsLinearGradient1114)" stroke-linecap="round" class="Up"></path><path d="M972 468L971 637" stroke-width="6" stroke="url(#SvgjsLinearGradient1113)" stroke-linecap="round" class="Down"></path><path d="M851 574L850 764" stroke-width="6" stroke="url(#SvgjsLinearGradient1114)" stroke-linecap="round" class="Up"></path><path d="M78 221L77 671" stroke-width="10" stroke="url(#SvgjsLinearGradient1113)" stroke-linecap="round" class="Down"></path><path d="M49 428L48 640" stroke-width="8" stroke="url(#SvgjsLinearGradient1113)" stroke-linecap="round" class="Down"></path><path d="M1021 17L1020 -163" stroke-width="8" stroke="url(#SvgjsLinearGradient1113)" stroke-linecap="round" class="Down"></path><path d="M590 7L589 283" stroke-width="8" stroke="url(#SvgjsLinearGradient1113)" stroke-linecap="round" class="Down"></path><path d="M1119 518L1118 749" stroke-width="8" stroke="url(#SvgjsLinearGradient1114)" stroke-linecap="round" class="Up"></path><path d="M733 277L732 -48" stroke-width="8" stroke="url(#SvgjsLinearGradient1114)" stroke-linecap="round" class="Up"></path><path d="M487 311L486 -121" stroke-width="6" stroke="url(#SvgjsLinearGradient1113)" stroke-linecap="round" class="Down"></path><path d="M942 467L941 93" stroke-width="8" stroke="url(#SvgjsLinearGradient1114)" stroke-linecap="round" class="Up"></path><path d="M652 10L651 302" stroke-width="10" stroke="url(#SvgjsLinearGradient1113)" stroke-linecap="round" class="Down"></path><path d="M765 504L764 954" stroke-width="10" stroke="url(#SvgjsLinearGradient1113)" stroke-linecap="round" class="Down"></path><path d="M488 236L487 416" stroke-width="6" stroke="url(#SvgjsLinearGradient1113)" stroke-linecap="round" class="Down"></path><path d="M383 456L382 717" stroke-width="6" stroke="url(#SvgjsLinearGradient1114)" stroke-linecap="round" class="Up"></path><path d="M1059 366L1058 772" stroke-width="6" stroke="url(#SvgjsLinearGradient1114)" stroke-linecap="round" class="Up"></path><path d="M1430 199L1429 -25" stroke-width="8" stroke="url(#SvgjsLinearGradient1114)" stroke-linecap="round" class="Up"></path><path d="M1175 153L1174 348" stroke-width="10" stroke="url(#SvgjsLinearGradient1113)" stroke-linecap="round" class="Down"></path><path d="M593 304L592 125" stroke-width="10" stroke="url(#SvgjsLinearGradient1113)" stroke-linecap="round" class="Down"></path></g><defs><mask id="SvgjsMask1112"><rect width="1440" height="600" fill="#ffffff"></rect></mask><linearGradient x1="0%" y1="0%" x2="0%" y2="100%" id="SvgjsLinearGradient1113"><stop stop-color="rgba(255, 160, 190, 0)" offset="0"></stop><stop stop-color="rgba(255, 160, 190, 1)" offset="1"></stop></linearGradient><linearGradient x1="0%" y1="100%" x2="0%" y2="0%" id="SvgjsLinearGradient1114"><stop stop-color="rgba(255, 160, 190, 0)" offset="0"></stop><stop stop-color="rgba(255, 160, 190, 1)" offset="1"></stop></linearGradient></defs></svg>