<svg xmlns="http://www.w3.org/2000/svg" version="1.1" xmlns:xlink="http://www.w3.org/1999/xlink" xmlns:svgjs="http://svgjs.com/svgjs" width="1440" height="560" preserveAspectRatio="none" viewBox="0 0 1440 560"><g mask="url(&quot;#SvgjsMask1126&quot;)" fill="none"><rect width="1440" height="560" x="0" y="0" fill="rgba(255, 224, 234, 1)"></rect><path d="M1440 0L775.52 0L1440 139.32z" fill="rgba(255, 255, 255, .1)"></path><path d="M775.52 0L1440 139.32L1440 321.68L411.13 0z" fill="rgba(255, 255, 255, .075)"></path><path d="M411.1300000000001 0L1440 321.68L1440 452.20000000000005L341.6400000000001 0z" fill="rgba(255, 255, 255, .05)"></path><path d="M341.6400000000001 0L1440 452.20000000000005L1440 479.09000000000003L114.10000000000011 0z" fill="rgba(255, 255, 255, .025)"></path><path d="M0 560L364.62 560L0 517.36z" fill="rgba(0, 0, 0, .1)"></path><path d="M0 517.36L364.62 560L873.73 560L0 469.07z" fill="rgba(0, 0, 0, .075)"></path><path d="M0 469.07L873.73 560L1139.19 560L0 305.74z" fill="rgba(0, 0, 0, .05)"></path><path d="M0 305.74L1139.19 560L1282.79 560L0 243.36z" fill="rgba(0, 0, 0, .025)"></path></g><defs><mask id="SvgjsMask1126"><rect width="1440" height="560" fill="#ffffff"></rect></mask></defs></svg>